# xmcd
#
# Track frame offsets:
#	150
#	10900
#	23610
#	35538
#	47495
#	60547
#	73216
#	90225
#	101841
#	115355
#	131077
#	142844
#	155542
#	169116
#	180101
#
# Disc length: 2548 seconds
#
# Revision: 0
# Processed by: cddbd v1.5.2PL0 Copyright (c) Steve Scherf et al.
# Submitted via: dBpowerAMP V4.0
#
DISCID=bb09f20f
DTITLE=Various Artist - Blues - Definitive collection CD1 Classics
DYEAR=1900
DGENRE=Blues
TTITLE0=B.B. King - Recession Blues
TTITLE1=Muddy Waters - I'm Your Hoochie Coochie Man
TTITLE2=John Lee Hooker - Boom Boom
TTITLE3=Robert Johnson - Cross Road Blues
TTITLE4=Elmore James - Dust My Broom
TTITLE5=Jimmy Reed - Shame Shame Shame
TTITLE6=Howlin' Wolf - Little Red Rooster
TTITLE7=Sonny Boy Williamson II - Don't Start Me Talking
TTITLE8=Albert King - Bad Luck Blues
TTITLE9=Memphis Slim - Forty Four Blues
TTITLE10=Willie Mabon - I'm Mad
TTITLE11=Ike Turner and  Jackie Brenston - Rocket 88
TTITLE12=Big Bill Broonzy - Leavin' Day
TTITLE13=Champion Jack Dupree - Shake Baby Shake
TTITLE14=Bo Diddley - Diddy Wah Diddy
EXTD=
EXTT0=
EXTT1=
EXTT2=
EXTT3=
EXTT4=
EXTT5=
EXTT6=
EXTT7=
EXTT8=
EXTT9=
EXTT10=
EXTT11=
EXTT12=
EXTT13=
EXTT14=
PLAYORDER=
